<svg id="Layer_1" data-name="Layer 1" xmlns="http://www.w3.org/2000/svg" viewBox="0 0 122.88 67.84"><defs><style>.cls-1{fill:#fd5;}</style></defs><title>sold-out</title><path d="M.78,33.58,30.62,1.3A3,3,0,0,1,32.79.35c26.48,0,54.44-.71,80.82-.09a9.41,9.41,0,0,1,9.27,9.53c-.12,15.49-.36,32.25-.54,47.78a16.32,16.32,0,0,1-.09,2.2,9.17,9.17,0,0,1-2.78,5.43,9.58,9.58,0,0,1-5.76,2.59,20,20,0,0,1-2,0L32.9,67.15a3,3,0,0,1-2.16-.82L1,37.76a3,3,0,0,1-.18-4.18Z"/><path class="cls-1" d="M32.79,4,3.61,35.58l29.18,28,79.31.69a6.45,6.45,0,0,0,6.63-6.42l.54-47.31a6.43,6.43,0,0,0-6.42-6.63L32.79,4ZM22.52,29a7.08,7.08,0,0,1,5.1-2.24,7.26,7.26,0,0,1,5.29,2,7.34,7.34,0,0,1,.17,10.33,7.27,7.27,0,0,1-10.32.28A7.33,7.33,0,0,1,22.52,29Z"/><path d="M56.77,19.12q-3.6-.39-5.22-.39a10.24,10.24,0,0,0-1.9.09c-.4.13-.33,1.14,0,1.33,1.08.54,5.85,1.25,6.43,1.69a2.93,2.93,0,0,1,1.09,1.55,9,9,0,0,1,.27,2.46q0,3.21-1.68,4.57a7.93,7.93,0,0,1-5.07,1.37,27.53,27.53,0,0,1-3.42-.23,27.72,27.72,0,0,1-2.76-.47l-1-.23.25-4.57a46,46,0,0,0,6.39.57c1.91,0,2.06-1.38-.64-1.81-2.37-.37-4-.45-4.85-1.25a5.2,5.2,0,0,1-1.28-3.93q0-3.5,1.65-4.78a8.25,8.25,0,0,1,5.09-1.29,34.65,34.65,0,0,1,5.68.49l1.07.18-.15,4.65Zm-.68,29.36a2,2,0,0,0,3.5,0,12.69,12.69,0,0,0,0-6.36c-.54-1.29-3-1.28-3.52,0a12,12,0,0,0,0,6.32ZM66,45.32c0,3.15-.65,5.44-1.94,6.85s-3.35,2.13-6.17,2.13-4.89-.72-6.19-2.14-1.94-3.72-1.94-6.86.65-5.42,1.93-6.83,3.35-2.13,6.19-2.13,4.9.71,6.18,2.13S66,42.17,66,45.32Zm8.09-8.65V48c0,1.9,3.18,1.93,3.18,0V36.67h5.9v11c0,2.43-.61,4.16-1.8,5.15s-3.11,1.48-5.69,1.48-4.49-.48-5.69-1.45-1.81-2.65-1.81-5.08V36.67Zm11.09,4.88V36.67H98.87v4.88H95.06V54H89.15V41.55ZM65.38,22.78a8.53,8.53,0,0,0,.42,3.16,1.71,1.71,0,0,0,1.76,1A1.69,1.69,0,0,0,69.3,26a8.92,8.92,0,0,0,.41-3.19,9,9,0,0,0-.4-3.17,1.67,1.67,0,0,0-1.74-1,1.73,1.73,0,0,0-1.77,1,8.61,8.61,0,0,0-.42,3.16Zm10.28,0q0,4.72-1.93,6.86t-6.17,2.12q-4.24,0-6.19-2.14c-1.29-1.42-1.95-3.71-1.95-6.85s.65-5.42,1.94-6.84,3.35-2.13,6.18-2.13,4.9.71,6.19,2.13,1.93,3.7,1.93,6.85Zm13.91,8.65H78.12V14.14H84V26.55h5.54v4.88Zm9.74,0H91.85V14.14h7.2q4.41,0,6.34,2t1.94,6.44q0,4.43-1.86,6.63c-1.24,1.47-3.3,2.21-6.16,2.21Zm2.06-8.54a6.79,6.79,0,0,0-.47-3.1c-.55-.92-2.18-.78-3.14-.78v7.54c1,0,2.26.12,3-.67.41-.44.61-1.45.61-3Z"/></svg>